<?xml version="1.0" standalone="no"?>
<!DOCTYPE svg PUBLIC "-//W3C//DTD SVG 20010904//EN"
 "http://www.w3.org/TR/2001/REC-SVG-20010904/DTD/svg10.dtd">
<svg version="1.0" xmlns="http://www.w3.org/2000/svg"
 width="225.000000pt" height="225.000000pt" viewBox="0 0 225.000000 225.000000"
 preserveAspectRatio="xMidYMid meet">

<g transform="translate(0.000000,225.000000) scale(0.100000,-0.100000)"
fill="#000000" stroke="none">
<path d="M954 2234 c-492 -82 -859 -453 -939 -946 -33 -203 -3 -413 87 -623
76 -176 272 -402 423 -490 365 -212 740 -229 1100 -50 130 64 216 127 312 228
366 386 412 966 111 1410 -234 345 -686 540 -1094 471z m295 -671 c87 -42 139
-129 140 -239 2 -108 -71 -213 -173 -247 -62 -21 -108 -21 -175 -1 -75 22
-116 58 -156 138 -59 117 -12 276 101 342 82 48 170 51 263 7z m-324 -518 c18
-14 59 -35 91 -47 96 -33 227 -13 311 49 40 29 49 25 119 -49 63 -67 101 -143
121 -248 14 -70 15 -83 2 -91 -8 -5 -212 -9 -457 -9 l-444 0 7 63 c14 124 66
227 155 311 27 25 52 46 55 46 4 0 21 -11 40 -25z"/>
</g>
</svg>
